<svg version="1.1" xmlns="http://www.w3.org/2000/svg" xmlns:xlink="http://www.w3.org/1999/xlink" width="54.04624" height="41.08626" viewBox="0,0,54.04624,41.08626"><g transform="translate(-212.97688,-159.58187)"><g data-paper-data="{&quot;isPaintingLayer&quot;:true}" fill="#56b334" fill-rule="nonzero" stroke-linejoin="miter" stroke-miterlimit="10" stroke-dasharray="" stroke-dashoffset="0" style="mix-blend-mode: normal"><g><path d="M266.52312,186.96768c0,7.2904 -11.8748,13.20045 -26.52312,13.20045c-14.64832,0 -26.52312,-5.91004 -26.52312,-13.20045c0,-7.2904 11.8748,-13.20045 26.52312,-13.20045c14.64832,0 26.52312,5.91004 26.52312,13.20045z" stroke="#000000" stroke-width="1" stroke-linecap="butt"/><path d="M238.19941,169.60997c0,5.4003 -2.96871,9.77811 -6.63079,9.77811c-3.66208,0 -6.63079,-4.37781 -6.63079,-9.77811c0,-5.4003 2.96871,-9.77811 6.63079,-9.77811c3.66208,0 6.63079,4.37781 6.63079,9.77811z" stroke="#005d5d" stroke-width="0.5" stroke-linecap="butt"/><path d="M254.87836,169.60999c0,5.13029 -2.74629,9.28921 -6.13403,9.28921c-3.38772,0 -6.13404,-4.15892 -6.13404,-9.28921c0,-5.13029 2.74629,-9.28921 6.13404,-9.28921c3.38772,0 6.13403,4.15892 6.13403,9.28921z" stroke="#005d5d" stroke-width="0.5" stroke-linecap="butt"/><path d="M258.10579,186.47722c0,0 -11.84466,6.43569 -17.564,6.47611c-5.80848,0.04105 -17.02358,-6.23166 -17.02358,-6.23166" stroke="#ffd6d6" stroke-width="3" stroke-linecap="round"/><path d="M228.29872,171.80927c0,0 2.60073,-5.41429 3.6775,-5.48154c1.25158,-0.07816 3.38676,5.04038 3.38676,5.04038" stroke="#ffffff" stroke-width="1.5" stroke-linecap="round"/><path d="M245.132,171.61458c0,0 2.69073,-5.41429 3.80475,-5.48154c0.52029,-0.03141 1.18817,0.77617 1.80103,1.75358c0.91243,1.45517 1.70292,3.2868 1.70292,3.2868" stroke="#ffffff" stroke-width="1.5" stroke-linecap="round"/></g></g></g></svg>