<svg version="1.1" xmlns="http://www.w3.org/2000/svg" xmlns:xlink="http://www.w3.org/1999/xlink" width="575" height="436" viewBox="0,0,575,436"><g transform="translate(63.5,40)"><g data-paper-data="{&quot;isPaintingLayer&quot;:true}" fill-rule="nonzero" stroke-linecap="butt" stroke-linejoin="miter" stroke-miterlimit="10" stroke-dasharray="" stroke-dashoffset="0" style="mix-blend-mode: normal"><path d="M-62.5,395v-434h573v434z" fill="#000000" stroke="#000000" stroke-width="2"/><path d="M-23.5,309.3125v-10h100v10z" fill="#ffffff" stroke="#ffffff" stroke-width="2"/><path d="M149.41667,381.3125h-10.83333v-332h10.83333z" fill="#ffffff" stroke="#ffffff" stroke-width="2"/><path d="M67.4604,52.3125h9.60396v254h-9.60396z" fill="#ffffff" stroke="#ffffff" stroke-width="2"/><path d="M202.46985,191.6608l0.06452,-9.99979l201.9958,1.3032l-0.06451,9.99979z" fill="#ffffff" stroke="#ffffff" stroke-width="2"/><path d="M274.16334,193.28235l6.52348,0.03674l-0.85016,115.02357l-6.52348,-0.03674z" fill="#ffffff" stroke="#ffffff" stroke-width="2"/><path d="M202.46985,131.6608l0.02939,-9.99979l92.03092,1.3032l-0.02939,9.99979z" fill="#ffffff" stroke="#ffffff" stroke-width="2"/><path d="M66.46985,56.6608l0.02461,-9.99979l77.03571,1.3032l-0.02461,9.99979z" fill="#ffffff" stroke="none" stroke-width="0"/><path d="M201.76312,-4.47063l11.51757,-0.29689l-0.17514,135.86316l-11.51757,0.29689z" fill="#ffffff" stroke="#ffffff" stroke-width="2"/><path d="M264.46985,74.66079l0.02939,-9.99979l92.03092,1.3032l-0.02939,9.99979z" fill="#ffffff" stroke="#ffffff" stroke-width="2"/><path d="M346.72037,66.25642l12.75883,0.12051l-2.38665,121.81897l-12.75883,-0.12051z" fill="#ffffff" stroke="#ffffff" stroke-width="2"/><path d="M-15.5,2.3125v-11h500v11z" fill="#ffffff" stroke="none" stroke-width="0"/><path d="M-3.5396,-3.6875h9.60396v304h-9.60396z" fill="#ffffff" stroke="#ffffff" stroke-width="2"/><path d="M487.31945,366.64584h-12.63888v-372.33333h12.63888z" fill="#ffffff" stroke="#ffffff" stroke-width="2"/><path d="M208.5,367.0625v-22.5h63v22.5z" fill="#f00000" stroke="none" stroke-width="0"/><path d="M-10.5,368.3125v-11h221v11z" fill="#ffffff" stroke="#ffffff" stroke-width="2"/><path d="M357.46985,253.05391l0.04089,-9.75397l128.01942,1.27117l-0.04089,9.75397z" fill="#ffffff" stroke="#ffffff" stroke-width="2"/><path d="M359.75537,301.28235l7.46168,0.01981l-0.97242,62.04049l-7.46168,-0.01981z" fill="#ffffff" stroke="#ffffff" stroke-width="2"/><path d="M273.5,365.3125v-10h214v10z" fill="#ffffff" stroke="#ffffff" stroke-width="2"/><path d="M360.5,311.3125v-10h66v10z" fill="#ffffff" stroke="#ffffff" stroke-width="2"/><path d="M413.77488,0.25642l7.70432,0.13731l-1.44116,138.80217l-7.70432,-0.13731z" fill="#ffffff" stroke="#ffffff" stroke-width="2"/><path d="M200.76136,181.25642l11.42788,0.18492l-2.13769,186.92725l-11.42788,-0.18493z" fill="#ffffff" stroke="#ffffff" stroke-width="2"/></g></g></svg>