<svg version="1.1" xmlns="http://www.w3.org/2000/svg" xmlns:xlink="http://www.w3.org/1999/xlink" width="137.86505" height="141.49624" viewBox="0,0,137.86505,141.49624"><g transform="translate(-172.83882,-119.00199)"><g data-paper-data="{&quot;isPaintingLayer&quot;:true}" fill-rule="nonzero" stroke-linejoin="miter" stroke-miterlimit="10" stroke-dasharray="" stroke-dashoffset="0" style="mix-blend-mode: normal"><path d="M239.21591,123.6521c0,0 2.1387,21.9955 8.028,23.2134c5.9589,1.0059 36.55232,-21.37462 36.55232,-21.37462c0,0 -17.71462,23.52882 -11.01752,30.66002c6.314,5.7345 37.55194,-8.42813 37.55194,-8.42813c0,0 -31.74324,17.47903 -32.90934,20.80863c-0.3482,3.0123 17.0232,6.7706 17.0232,6.7706c0,0 -6.6947,4.7069 -5.9968,8.5116c1.5723,8.2136 12.3805,21.8593 12.3805,21.8593c0,0 -21.7912,-2.4413 -25.1479,5.6099c-4.1923,10.0444 9.2854,31.3381 9.2854,31.3381l-26.502,-5.6099l-15.8625,21.8593c0,0 -7.4097,-20.1291 -16.2494,-23.9872c-6.3644,-2.7748 -19.7314,8.5116 -19.7314,8.5116l0.87657,-31.7882l-34.34257,9.9289c0,0 23.5624,-10.525 22.0527,-20.1183c-1.9553,-11.8544 -18.88507,-20.26508 -18.88507,-20.26508c0,0 10.16537,-5.70462 16.37027,-10.87962c0.47467,-0.62226 -0.18641,-2.16928 -0.18641,-2.16928l-10.45309,-7.24198c0,0 19.6626,-1.72734 22.4397,-9.15954c2.6626,-9.0679 -10.8329,-26.3085 -10.8329,-26.3085c0,0 18.9197,21.1203 31.3381,20.6986c8.9023,-0.393 14.2182,-22.4396 14.2182,-22.4396z" fill="#ff0000" stroke="#ff0000" stroke-width="1.54756" stroke-linecap="butt"/><path d="M237.74636,157.68192l5.8034,7.1575l9.99156,-7.3509l-4.38166,12.9608l23.6003,-2.3213l-11.59196,11.4799c0,0 -0.31827,0.72712 -0.40164,1.094c-2.025,8.9975 1.741,27.6627 1.741,27.6627l-13.5412,-16.056l-8.8984,36.1743l-0.56112,-30.95765l-10.37465,21.07602l0.71115,-21.50102l-17.05117,24.22515c0,0 11.9456,-21.238 9.0919,-31.9184c-2.661,-8.7004 -22.6331,-15.6691 -22.6331,-15.6691c0,0 18.9631,4.0438 25.1479,-1.5476c4.4748,-4.0894 -11.70015,-24.50711 -11.70015,-24.50711l22.71722,24.85228z" fill="#ffff00" stroke="#ffff00" stroke-width="1.54756" stroke-linecap="round"/><path d="M252.5403,147.07813l5.14602,13.33117l18.25151,-6.07642l-12.65222,17.03176l35.92999,7.84114l-22.58397,11.40471c0,0 -0.81671,0.92091 -1.11486,1.42244c-7.28303,12.30898 -10.63665,41.64698 -10.63665,41.64698l-12.3151,-30.15459l-30.39814,49.12673l13.95047,-45.94539l-25.36879,26.14474l11.31332,-31.38493l-36.7232,27.60402c0,0 27.76402,-25.6338 28.65198,-42.75484c0.22709,-14.10759 -25.91475,-33.92397 -25.91475,-33.92397c0,0 26.04934,15.01906 37.84411,9.72151c8.55467,-3.89769 -5.56431,-41.7452 -5.56431,-41.7452l21.65506,47.51376z" fill="#000cff" stroke="#ffff00" stroke-width="1.54756" stroke-linecap="round"/></g></g></svg>