<svg version="1.1" xmlns="http://www.w3.org/2000/svg" xmlns:xlink="http://www.w3.org/1999/xlink" width="122.04409" height="78.77718" viewBox="0,0,122.04409,78.77718"><g transform="translate(-178.97795,-140.61141)"><g data-paper-data="{&quot;isPaintingLayer&quot;:true}" fill-rule="nonzero" stroke="none" stroke-width="0.66342" stroke-linecap="butt" stroke-linejoin="miter" stroke-miterlimit="10" stroke-dasharray="" stroke-dashoffset="0" style="mix-blend-mode: normal"><g><g><path d="M239.73522,168.35304c-0.30013,0.09823 -0.596,0.18603 -0.88778,0.2648c-2.10483,0.56258 -4.39258,0.47657 -6.60462,0.39367c-2.4428,-0.0926 -4.9688,-0.18795 -7.29287,0.57275c-0.10597,0.03468 -0.21207,0.07088 -0.31739,0.10946c-1.27431,0.46392 -2.62903,1.22353 -3.93991,1.95764c-1.47738,0.82849 -3.00564,1.68541 -4.50877,2.1774c-2.54532,0.83312 -4.623,0.46119 -6.35188,-1.13553c-3.35494,-3.09922 -2.15102,-5.21543 0.03445,-9.05876c0.67128,-1.18017 1.43191,-2.51817 2.26022,-4.18683c0.18601,-0.37423 0.32337,-1.32177 0.46936,-2.3259c0.5614,-3.86805 1.60606,-11.0691 9.29382,-13.58542c5.91663,-1.9366 12.40561,1.42408 16.69998,3.64836c0.98502,0.50967 1.83642,0.9506 2.50955,1.23712c3.75443,1.59819 10.33873,7.76461 9.13181,11.66739c-1.03913,3.36195 -6.15309,6.84236 -10.49597,8.26385v0z" fill="#5f8ba5"/><path d="M222.19852,144.4816c-9.22748,3.0203 -8.06708,13.1658 -9.18091,15.40813c-3.57706,7.20764 -6.13815,8.72228 -2.51112,12.07253c1.64703,1.52154 3.46563,1.5433 5.36726,0.92086c2.7238,-0.89154 5.61736,-3.10487 8.41794,-4.12413c0.11547,-0.042 0.23145,-0.08207 0.34806,-0.12024c4.66136,-1.52573 9.73734,0.14537 13.95027,-0.98232c0.27391,-0.07355 0.55321,-0.15667 0.835,-0.2489c4.15252,-1.35918 8.94753,-4.67732 9.85467,-7.61285c0.96957,-3.13537 -4.92611,-8.90588 -8.57106,-10.45761c-3.64491,-1.55164 -11.65962,-7.09773 -18.51009,-4.85547M222.19852,144.4816l-0.6191,-1.89146v0c6.31388,-2.06663 13.02564,1.40957 17.4671,3.70998c0.96758,0.50138 1.803,0.93365 2.44139,1.20566c3.69099,1.57086 11.18131,8.06544 9.69292,12.87633c-1.17596,3.80963 -6.61589,7.43724 -11.13669,8.91696c-0.31715,0.10381 -0.63338,0.19753 -0.94013,0.27973c-2.24886,0.60214 -4.61304,0.51317 -6.8995,0.42664c-2.46377,-0.09268 -4.79055,-0.18054 -6.94564,0.52486c-0.0958,0.03135 -0.19129,0.06398 -0.28672,0.09869c-1.19861,0.43705 -2.45843,1.14327 -3.79342,1.89085c-1.51937,0.85191 -3.09074,1.73272 -4.68586,2.25483c-2.87824,0.94209 -5.34678,0.48733 -7.33676,-1.35063c-3.93539,-3.63526 -2.34951,-6.42299 -0.15501,-10.2818c0.66499,-1.16917 1.41829,-2.49352 2.23168,-4.13288c0.12279,-0.27326 0.26448,-1.24809 0.37824,-2.03081c0.59169,-4.08252 1.69425,-11.68015 9.9684,-14.3884z" fill="#000000"/></g><path d="M221.65525,157.3347c1.63053,-0.06452 3.17935,-0.0138 4.72202,0.56397c0.78614,0.29488 0.18949,1.52819 -0.59717,1.17834c-2.92324,-1.29585 -7.19555,0.61002 -9.6704,-1.61922c-0.08184,-0.07517 -0.03794,-0.23327 0.08142,-0.2312c1.83354,0.02465 3.62263,0.18034 5.46413,0.10811z" fill="#231f20"/><path d="M223.80218,159.36834c0.53489,0.12649 0.35844,0.95845 -0.18011,0.8359c-2.52263,-0.57531 -6.64668,1.41892 -8.39896,-1.22623c-0.14505,-0.21715 0.11759,-0.56627 0.35989,-0.404c1.4453,0.96277 2.63862,1.19203 4.36469,0.98029c1.27195,-0.15738 2.57791,-0.48636 3.85449,-0.18596z" fill="#231f20"/></g><g><g><path d="M282.02383,200.20024c-5.6837,1.22162 -12.83062,2.67285 -19.74277,4.07709c-5.65732,1.14875 -11.00183,2.23436 -14.91975,3.06838c-0.54363,0.13853 -1.29509,0.31089 -2.18819,0.50285c-9.7428,2.09407 -36.6882,6.62747 -36.95941,6.67288c-1.32097,0.29138 -2.97694,0.79531 -4.72954,1.32942c-2.11007,0.64214 -4.50205,1.37136 -6.83703,1.87323c-4.79001,1.02954 -11.47449,1.68655 -14.2094,-4.47062c-0.62984,-1.41852 -0.31182,-3.87541 0.0561,-6.71973c0.27533,-2.12541 0.55966,-4.32262 0.31805,-5.57287c-0.22408,-1.16247 -0.66782,-2.52934 -1.13755,-3.97624c-1.14602,-3.52928 -2.44498,-7.52985 -1.17914,-10.60368c1.36523,-3.31858 4.38428,-6.09948 7.04758,-8.55291c1.93772,-1.78525 3.7678,-3.47126 4.55424,-4.99606c0.82569,-1.60106 1.41506,-3.29185 1.98495,-4.92763c1.2374,-3.55019 2.40569,-6.90377 5.73568,-8.90132c1.28442,-0.77071 2.59197,-1.29201 3.99552,-1.59368c1.94586,-0.41824 3.84772,-0.36827 5.86082,-0.31572c2.4382,0.06357 4.96036,0.12945 8.11648,-0.54891c1.37509,-0.29556 2.73309,-0.70209 4.15095,-1.24363c5.73134,-2.1873 7.31557,-3.93114 8.99299,-5.77775c1.75609,-1.93267 3.57173,-3.93184 9.82789,-6.19051c1.32922,-0.48045 2.66327,-0.86557 3.96505,-1.14537c12.52593,-2.69225 23.38145,4.26485 27.65786,17.72393c1.73661,5.46857 6.34692,6.41635 11.68486,7.51305c4.09765,0.84214 8.33531,1.71321 11.60233,4.77107c4.8831,4.57166 4.79368,9.57026 3.85938,12.95834c-1.88154,6.81689 -8.87526,13.17058 -16.26959,14.77747l-1.23834,0.26892z" fill="#91b6c5"/><path d="M244.93855,143.16061c-1.2479,0.26821 -2.52622,0.63523 -3.83658,1.10825c-11.9668,4.32144 -6.81879,7.38885 -18.80403,11.96188c-1.54649,0.59026 -2.9718,1.00247 -4.29684,1.28726c-5.96918,1.28298 -9.92748,-0.00582 -13.97798,0.86477c-1.20449,0.25888 -2.41684,0.70818 -3.69297,1.47373c-4.49601,2.69669 -4.73386,8.36237 -7.34851,13.43209c-1.9936,3.86471 -9.29717,7.95877 -11.56624,13.47136c-1.61189,3.9137 1.59219,9.95234 2.37425,14.01113c0.5801,3.00827 -1.41277,9.89112 -0.44267,12.07799c2.236,5.03281 7.58028,5.08587 13.09092,3.90144c4.21005,-0.90489 8.5168,-2.5315 11.61095,-3.21076c0,0 27.0814,-4.55119 36.91502,-6.66477c0.87883,-0.18889 1.61797,-0.3586 2.19015,-0.50326c8.65211,-1.84205 24.27378,-4.91257 34.66125,-7.1452c0.42098,-0.09049 0.83346,-0.17915 1.23656,-0.26721c10.80304,-2.34833 22.26714,-16.37054 11.9421,-26.03721c-7.22737,-6.76513 -20.23535,-2.2559 -23.55566,-12.70949c-3.68721,-11.60766 -13.2895,-19.89133 -26.49971,-17.05201M244.93855,143.16061l-0.41823,-1.94586v0c6.76236,-1.45346 13.11871,-0.26891 18.38163,3.42452c4.77934,3.35367 8.38647,8.53078 10.43282,14.97025c1.48467,4.67521 5.12336,5.64525 10.9369,6.83989c4.03605,0.8296 8.6101,1.76962 12.08207,5.02012c4.09352,3.83146 5.56288,8.78611 4.1382,13.94958c-1.97193,7.14776 -9.28722,13.8046 -17.01729,15.48508l-1.24117,0.2681c-5.68829,1.22261 -12.83842,2.67462 -19.75311,4.07941c-5.63855,1.14472 -10.96473,2.22711 -14.87509,3.05868c-0.57162,0.14393 -1.31902,0.31613 -2.22317,0.51047c-9.56506,2.05586 -35.63627,6.45159 -36.95327,6.67288c-1.3225,0.29377 -2.94155,0.78628 -4.65466,1.30853c-2.12838,0.64883 -4.54162,1.38334 -6.91746,1.89399c-2.95502,0.63513 -11.94794,2.56803 -15.32709,-5.03996c-0.74307,-1.67311 -0.40891,-4.25764 -0.02148,-7.25058c0.25233,-1.9516 0.53878,-4.16419 0.32739,-5.2581c-0.21224,-1.10119 -0.64707,-2.4395 -1.10712,-3.85656c-1.19932,-3.69212 -2.55822,-7.87731 -1.15327,-11.28851c1.44965,-3.52257 4.55468,-6.38312 7.29445,-8.9072c1.87079,-1.72402 3.63801,-3.35171 4.34412,-4.72015c0.79301,-1.53849 1.37131,-3.19561 1.92983,-4.79908c1.24093,-3.56189 2.52462,-7.24416 6.16419,-9.427c1.37934,-0.82783 2.78574,-1.38798 4.29829,-1.71308c2.06191,-0.44317 4.02113,-0.39193 6.09563,-0.33775c2.38013,0.06183 4.841,0.12666 7.88166,-0.52688c1.32446,-0.28467 2.63468,-0.67695 4.00553,-1.2002c5.50877,-2.10213 7.01626,-3.76093 8.6114,-5.51725c1.83776,-2.02284 3.73813,-4.11418 10.22582,-6.45729c1.3722,-0.4951 2.74907,-0.89281 4.09425,-1.18193z" fill="#000000"/></g><path d="M204.87588,174.58432c-4.41969,-0.08619 -7.61007,1.57256 -10.52592,4.82736c-2.1455,2.39369 -3.986,5.39843 -6.63262,7.27897c-0.43054,0.30488 -1.17978,-0.16579 -0.77779,-0.65733c4.98716,-6.1008 13.25093,-19.5551 22.25404,-19.09214c1.5636,0.07991 -2.75674,7.6727 -4.3177,7.64315z" fill="#000000"/><path d="M193.57021,183.59166c-0.33021,0.10217 -0.50734,-0.41884 -0.20569,-0.56581c6.26674,-3.01416 10.52728,-8.59097 18.06046,-7.70211c1.37632,0.16221 1.26777,2.3155 -0.12308,2.15846c-3.88036,-0.43696 -7.21691,0.31752 -10.4884,2.45449c-2.35302,1.5386 -4.55036,2.82312 -7.24328,3.65498z" fill="#231f20"/><path d="M266.70451,183.39833c1.6225,-2.16253 3.76991,-4.65779 4.29899,-7.37381c0.38572,-1.96871 0.28532,-4.1314 -0.77578,-5.89838c-0.97665,-1.62966 -6.67075,-0.13897 -7.96986,-1.23925c-1.77386,-1.49973 0.30024,-7.87377 1.09367,-10.26314c0.24533,-0.73404 1.10562,-0.82597 1.62802,-0.34992c1.20103,1.09221 1.46838,3.77278 1.98297,5.22896c0.89441,2.52615 3.90985,3.41566 4.80804,6.06651c1.79179,5.27414 -0.84231,10.35143 -4.02113,14.50423c-0.48441,0.632 -1.52795,-0.03061 -1.04492,-0.67521z" fill="#231f20"/><path d="M261.00877,197.18753c-0.35923,0.19126 3.95231,-8.68826 4.28348,-8.95009c2.43043,-1.90464 9.22941,4.36143 10.79456,1.62893c0.82767,-1.44672 -1.89017,-11.71823 -2.20584,-13.45814c-0.16829,-0.93143 -0.46819,-1.75858 -0.44027,-2.70846c0.02113,-0.68453 0.94259,-1.01627 1.3915,-0.49383c1.91418,2.23496 0.27824,6.15997 -1.19953,8.23779c-2.17682,3.06271 -4.60891,5.62254 -7.92515,7.39047z" fill="#231f20"/><path d="M241.55354,149.00502c-3.72267,0.98199 -5.45279,3.46755 -8.11107,5.96675c-2.19492,2.06575 -4.35799,3.38976 -7.05945,4.68352c-0.05543,0.02624 -0.09355,-0.05312 -0.04159,-0.08261c3.33011,-1.94326 12.06601,0.86658 14.6718,-1.91448c1.76757,-1.88829 -2.39832,-9.54222 0.28212,-9.85444c0.77732,-0.08964 1.03447,0.99636 0.2582,1.20126z" fill="#231f20"/></g><g><g><path d="M233.0472,192.65027c-0.03303,-0.31407 -0.05674,-0.62178 -0.0725,-0.92359c-0.1081,-2.17603 0.45633,-4.39473 1.00182,-6.54006c0.60343,-2.36891 1.22701,-4.81857 0.97124,-7.25056c-0.01166,-0.11089 -0.02478,-0.22223 -0.04038,-0.33331c-0.18603,-1.34331 -0.64427,-2.82732 -1.08677,-4.26311c-0.49982,-1.6184 -1.01677,-3.29251 -1.1822,-4.86544c-0.28013,-2.66351 0.51975,-4.61679 2.44386,-5.97188c3.73456,-2.62945 5.55081,-1.00803 8.84961,1.93568c1.01292,0.90411 2.16139,1.9287 3.61894,3.08891c0.32683,0.26045 1.22442,0.59369 2.17552,0.94725c3.66396,1.36103 10.48516,3.89435 11.33125,11.93908c0.65117,6.19135 -3.99704,11.83007 -7.07339,15.56171c-0.70513,0.85605 -1.31499,1.5959 -1.73646,2.19387c-2.35084,3.33518 -9.76227,8.47801 -13.32465,6.47856c-3.06884,-1.72186 -5.39793,-7.45257 -5.8759,-11.99711v0z" fill="#5f8ba5"/><path d="M260.06856,180.51656c-1.01556,-9.65594 -11.17854,-10.65159 -13.13703,-12.21139c-6.29593,-5.01065 -7.23908,-7.83267 -11.27618,-4.98991c-1.83344,1.29085 -2.23655,3.06435 -2.02726,5.05427c0.29978,2.85028 1.85623,6.14404 2.26476,9.0962c0.01683,0.12171 0.03164,0.24353 0.04448,0.36556c0.51302,4.87779 -2.18659,9.48976 -1.96859,13.84555c0.01441,0.28324 0.03701,0.57378 0.06803,0.86865c0.10994,1.04528 3.97747,1.88966 4.27483,2.98674c0.93878,3.46359 -0.93582,7.10502 1.09923,8.24667c2.86191,1.60627 9.74165,-2.94641 12.0241,-6.18431c2.28234,-3.23789 9.38759,-9.90947 8.63364,-17.07803M260.06856,180.51656l1.97929,-0.20817v0c0.69489,6.60706 -4.11304,12.43935 -7.2947,16.29881c-0.69336,0.84073 -1.2914,1.56678 -1.69138,2.13382c-2.31081,3.27889 -10.23329,9.23865 -14.62445,6.77333c-3.4778,-1.94962 -5.88238,-8.02997 -6.37993,-12.76067c-0.03491,-0.33187 -0.06014,-0.66073 -0.0761,-0.9779c-0.11655,-2.32516 0.46684,-4.61796 1.03151,-6.83528c0.60791,-2.38939 1.18234,-4.64586 0.94516,-6.90102c-0.01055,-0.10025 -0.02239,-0.20046 -0.03629,-0.30106c-0.17564,-1.26366 -0.60162,-2.64367 -1.05223,-4.10586c-0.51391,-1.66438 -1.04516,-3.38565 -1.22071,-5.05484c-0.31678,-3.01189 0.64615,-5.32992 2.86095,-6.88964c4.38051,-3.08441 6.77313,-0.94855 10.08517,2.00723c1.00349,0.89565 2.14014,1.91022 3.57218,3.04969c0.24138,0.17742 1.16475,0.52062 1.90614,0.79619c3.86728,1.43567 11.06406,4.10887 11.9747,12.76721z" fill="#000000"/></g><path d="M247.61603,177.28674c-0.27927,1.60773 -0.65405,3.11138 -1.54285,4.49836c-0.45337,0.7067 -1.5339,-0.1356 -1.02668,-0.83127c1.88073,-2.586 0.91436,-7.16324 3.61353,-9.11487c0.09068,-0.06423 0.23604,0.01188 0.20895,0.12814c-0.40908,1.7875 -0.93693,3.50402 -1.25296,5.31964z" fill="#231f20"/><path d="M245.17695,178.95883c-0.23597,0.49641 -1.01235,0.1492 -0.77945,-0.3516c1.09214,-2.3456 0.00826,-6.79645 2.96236,-7.95428c0.24276,-0.09622 0.52896,0.23386 0.31942,0.43669c-1.24477,1.21094 -1.71947,2.32952 -1.87485,4.06158c-0.11319,1.27664 -0.06574,2.62257 -0.62748,3.80762z" fill="#231f20"/></g></g></g></svg>