<svg version="1.1" xmlns="http://www.w3.org/2000/svg" xmlns:xlink="http://www.w3.org/1999/xlink" width="147.56379" height="102.7938" viewBox="0,0,147.56379,102.7938"><g transform="translate(-170.27841,-96.6792)"><g data-paper-data="{&quot;isPaintingLayer&quot;:true}" fill-rule="nonzero" stroke="none" stroke-width="1.15473" stroke-linecap="butt" stroke-linejoin="miter" stroke-miterlimit="10" stroke-dasharray="" stroke-dashoffset="0" style="mix-blend-mode: normal"><g><path d="M191.33753,147.59145c0.30246,2.3335 -1.445,3.50397 -2.18148,5.71867c-1.82875,5.6361 -5.06571,8.57292 -10.3176,11.32254c-3.75558,1.64473 -7.71176,-2.73604 -7.53778,-6.74789c0.21943,-4.72946 3.54059,-6.64866 6.50542,-10.38387c2.04139,-2.52947 2.40245,-4.96625 5.18701,-6.58522c3.61546,-2.0486 7.85091,2.56807 8.34444,6.67575z" fill="#ffffff"/><path d="M176.71098,166.63494c-1.50105,-0.26075 -4.52097,-1.93131 -5.25616,-3.29255c-4.72902,-8.75874 5.98996,-17.68001 11.09174,-23.45689l0.47222,0.39888c-1.91942,5.93753 -9.17456,11.2463 -9.75764,17.12293c-0.17256,1.72871 0.03055,4.58368 1.81626,5.5025c0.02798,-2.98763 3.60006,-9.77387 3.91253,-8.93867c-0.15297,1.67108 -0.54158,6.8605 -1.62812,9.22643c1.55442,-0.21253 3.28332,-1.04173 4.86786,-2.15405c-0.01164,-3.32263 1.56968,-8.697 2.27975,-9.40317c0,0 0.36238,3.86205 0.30336,7.21224c1.09191,-1.10807 1.94537,-2.25913 2.35274,-3.2423c1.09593,-2.62749 1.42168,-5.4483 2.73928,-8.13193c7.38589,-2.78742 -1.97267,21.08395 -13.19379,19.15657z" fill="#272525"/></g><g><path d="M252.68971,122.06571c-1.2391,-3.9501 -4.03758,-4.75076 -6.57822,-6.54499c-4.96861,-2.88376 -8.77173,-6.97874 -8.95232,-12.81155c-0.08806,-2.81183 1.95904,-5.88632 3.37223,-6.00891c4.379,-0.37846 6.59503,4.40874 6.17216,9.25734c-0.62183,7.14404 9.3101,7.01014 7.19818,14.40587c-0.12429,0.59221 -0.70111,1.31032 -1.21203,1.70224zM252.92916,120.07615c1.04038,-6.23246 -6.49496,-6.84749 -8.20799,-11.40492c-1.1135,-2.96095 0.20015,-7.1417 -2.42323,-9.34427c-0.70177,-0.59019 -1.89263,-0.77564 -2.51399,0.21204c-2.59702,5.08132 -0.01124,9.48102 3.6341,12.50011c4.01354,3.32486 9.27205,5.13795 9.51111,8.03704z" fill="#272525"/><path d="M252.92916,120.07615c-0.23906,-2.89909 -5.49757,-4.71218 -9.51111,-8.03704c-3.64535,-3.01909 -6.23112,-7.41879 -3.6341,-12.50011c0.62136,-0.98768 1.81222,-0.80223 2.51399,-0.21204c2.62338,2.20257 1.30972,6.38332 2.42323,9.34427c1.71304,4.55743 9.24837,5.17246 8.20799,11.40492z" fill="#4d58e1"/></g><g><path d="M263.79358,186.20872c-15.26159,2.99357 -15.35531,-24.02894 -19.26481,-36.35436c-0.03318,-0.10514 -0.12962,-6.03 4.7277,-3.39015c3.26937,1.77686 4.24568,9.70908 5.00403,9.95412c4.39429,9.83423 19.13075,27.90652 9.53308,29.79039z" fill="#ffffff"/><path d="M263.93749,187.58521c-2.39466,0.99995 -6.18733,-0.21411 -8.06568,-1.82885c-2.34248,-2.01296 -4.13958,-4.347 -5.31953,-7.18882c-2.25984,-5.44112 -7.06588,-23.42223 -6.95697,-27.94106c0.00077,-0.02952 -0.0255,-1.43158 0.96137,-1.3474c0.68338,0.05876 0.91151,2.02127 0.91151,2.02127c0.91735,5.48946 2.13039,10.9808 3.18816,16.44633c0.87676,4.52687 3.82847,13.02011 8.51128,16.70994c-0.51171,-2.29436 -0.15024,-6.55354 0.23734,-6.15103c0.43616,1.31751 2.03221,5.87405 1.39793,7.20871c0.86803,0.42769 1.78404,0.6978 2.75144,0.73947c1.48962,0.06612 2.39735,-0.62941 2.91929,-1.67005c-1.49937,-1.31857 -2.92102,-6.64168 -2.70728,-7.45834c0,0 2.14561,2.96528 3.26968,5.21352c0.14243,-1.81523 -0.23871,-3.82947 -0.69418,-5.03057c-2.30491,-6.09689 -11.03065,-21.59863 -11.5848,-23.30995c0,0 -0.7828,-1.37595 0.09005,-1.61311c0.87291,-0.23708 1.18505,1.12519 1.18505,1.12519l0.79017,1.26509l-0.01434,-0.00606c2.87161,4.62742 5.60859,9.39955 8.2609,14.14509c2.44138,4.3656 8.09048,15.65667 0.8686,18.67062z" fill="#272525"/></g><g><path d="M244.36224,131.24844c-2.79267,-0.57772 -5.13208,-4.1975 -6.6342,-6.4334c-3.93908,-5.86802 -15.01886,1.51357 -22.58821,-5.88664c-11.30869,-11.05679 1.69561,-16.90492 5.88206,-12.04425c0.92396,1.07514 1.77139,2.21895 2.70688,3.28027c3.18639,3.61004 12.64122,0.60046 18.32111,9.65309c2.02452,3.22418 1.42663,5.59068 2.21816,9.01262c0.13666,0.58629 0.65407,1.54674 0.69425,2.06381c0.01682,0.24238 -0.41928,0.39301 -0.60006,0.3545zM242.86272,128.8621c-0.98409,-4.73153 -3.812,-11.79728 -9.43123,-13.1394c-4.06078,-0.53399 -9.82863,0.04661 -11.92094,-4.5525c-0.88493,-1.95022 -2.64592,-4.57334 -5.38255,-4.3106c-1.59529,0.1523 -2.68315,1.71773 -2.88515,2.64683c-0.73739,3.36926 1.60837,6.78165 4.57321,8.77289c5.64337,3.78753 11.97983,1.10212 17.49744,2.21446c3.53513,1.27486 5.41804,5.80929 7.54923,8.36833z" fill="#272525"/><path d="M242.86272,128.8621c-2.13118,-2.55903 -4.0141,-7.09347 -7.54923,-8.36833c-5.51761,-1.11234 -11.85406,1.57307 -17.49744,-2.21446c-2.96484,-1.99124 -5.3106,-5.40363 -4.57321,-8.77289c0.202,-0.9291 1.28986,-2.49453 2.88515,-2.64683c2.73662,-0.26274 4.49762,2.36038 5.38255,4.3106c2.09232,4.59911 7.86016,4.01851 11.92094,4.5525c5.61923,1.34212 8.44713,8.40787 9.43123,13.1394z" fill="#4d58e1"/></g><path d="M308.71831,139.71624c1.4667,2.7644 0.55316,6.2494 0.55558,8.8672c-0.91469,2.612 -2.43854,4.4607 -4.27044,6.2043c-16.50211,14.0519 -35.31048,0.3026 -43.32855,-14.3267c-0.50588,-0.9227 -1.0082,-1.2171 -1.49349,-1.8095c-0.31782,-0.6004 -1.13669,-0.8556 -1.13669,-0.0854c0,0 -0.54717,3.0669 -0.54717,3.0681c-0.06314,4.5612 1.11126,6.5161 3.48676,9.9815c0.16621,0.2425 1.33694,1.4238 0.50588,1.8984c-0.05222,0.2378 -1.50315,0.7205 -1.97268,0.7228c-0.37371,0.082 -3.98907,-1.4353 -5.15497,-1.5369c-0.22799,-0.1224 -4.67199,9.0819 -17.84378,10.06c-6.01145,0.4469 -16.38685,-1.7864 -21.29786,-5.3718c-4.13102,-3.0162 -10.2759,-3.2795 -15.23188,-3.0266c-5.89011,0.2991 -14.50757,-3.254 -15.98887,-8.8741c-0.0291,0.0127 -0.06062,0.0231 -0.0934,0.0335c-0.95356,-2.6986 -1.93265,-12.2598 0.97174,-14.4688c2.59151,-3.4676 6.47983,-6.1016 10.9044,-4.9307c11.5643,1.2402 23.50705,3.5 35.08596,4.0658c10.05264,0.492 13.48235,-7.2228 20.65246,-12.0981c1.47163,-0.7355 5.20582,-1.1536 8.23766,0c2.72725,1.0381 16.3298,10.3164 16.44138,10.4065c3.16159,2.5381 7.54371,2.8475 11.0996,3.6639c0.02553,-0.0104 7.29996,1.0046 12.16727,1.9527c3.50504,1.3187 6.97353,2.9792 8.25111,5.6039" fill="#ffffff"/><path d="M230.49302,129.16775c0.60664,-0.2425 10.91889,2.4561 14.35596,-3.3406c3.43696,-5.7968 9.50305,-8.455 9.50305,-8.455c7.07659,1.7217 13.55023,11.7968 13.55023,11.7968c0,0 1.71191,4.3718 -0.50588,7.8441c-2.21769,3.4722 -6.04056,2.9387 -6.04056,2.9387c-2.50158,-4.1812 -2.5829,0.1421 -2.5829,0.1421c0,0 -1.73125,-0.3349 -2.19595,0.1859c-0.46459,0.5208 -5.5601,-1.5347 -12.13207,2.7956c-6.57197,4.3302 -8.59435,0.866 -10.2115,0.0958c-1.61725,-0.7702 -1.21328,-3.657 -13.34535,1.7321c-12.13207,5.3892 -16.88423,-4.8094 -16.88423,-4.8094c0,0 -0.50462,-3.6594 -4.0642,-3.9838c-3.55957,-0.3245 -5.13553,-1.6952 -6.04539,-2.6571c-0.90996,-0.9619 1.61715,-7.217 1.61715,-7.217c5.5601,-0.7703 34.37509,3.1743 34.98163,2.9318z" fill="#7862e0"/><path d="M266.58476,120.94265c0,0 11.14457,8.4849 14.15455,9.8152c0,0 -1.23871,5.5658 -4.65024,4.5993c-3.41154,-0.9665 -9.40355,-10.4688 -9.50431,-14.4145z" fill="#4d58e1"/><g fill="#272525"><path d="M199.35244,156.30975c0.06188,-0.0012 0.12492,0 0.1868,-0.0012c0.31183,0.0508 0.29607,0.0485 -0.1868,0.0231z"/><path d="M305.63426,154.78665c0,0 -0.01208,0.0034 -0.01576,0.0046c-3.11305,3.4596 -7.37624,5.7505 -11.95125,6.0612c-7.34482,0.4988 -15.42961,-0.7518 -20.85512,-6.015c-4.95104,-3.4088 -8.42688,-8.5231 -11.37624,-13.485c-0.99727,-1.6478 -1.17798,-2.2171 -1.77369,-3.0739c-1.32234,6.7425 2.42887,13.0439 4.75825,15.3129c-0.76193,1.9758 -4.94022,1.1998 -6.67147,0.2945c-0.89294,-0.4677 -2.95903,0.9007 -2.95903,0.9007c0,0 -2.55989,7.4387 -14.84357,8.478c-15.16264,1.2829 -18.49538,-1.9965 -22.61789,-3.5889c-0.30322,-0.1178 -0.56041,-0.2286 -0.79586,-0.336c-5.48971,-2.3753 -11.26708,-2.6351 -16.99339,-3.0312c-1.83558,-0.127 -15.02196,-2.4307 -16.34188,-12.6963l0.01334,0.0035c-1.82223,-3.791 -0.12618,-10.3856 2.49433,-14.1501c4.75216,-5.239 10.71507,-4.4018 10.71507,-4.4018c4.51681,0.1975 16.59551,0.8938 20.62094,1.5023c6.47973,0.9792 12.52995,1.7841 19.11768,1.5531c7.89557,-0.2771 9.22768,-7.2644 15.00978,-10.4769c4.86016,-2.7009 11.85186,-0.8175 15.95619,2.4065c0.38212,0.3002 0.81278,0.6513 1.24228,1.03c0.27537,0.2414 12.39652,8.7679 12.39652,8.7679v0c3.96722,0.6051 12.04235,2.0127 12.53489,2.2321c4.0436,0.8071 15.79965,1.7586 17.01282,10.2748c1.21328,8.5161 -4.67693,12.433 -4.67693,12.433zM267.34185,122.61585c1.77128,2.3903 2.59141,5.426 3.94169,7.9099c0.92929,1.6997 4.16127,4.3094 6.32076,3.3568c0.54108,-0.2379 0.98151,-0.8106 1.40975,-1.3083c0.26812,-0.3326 0.71465,-0.9873 0.77044,-1.7333c-0.05821,-0.0254 -0.11284,-0.045 -0.16989,-0.0716c-5.14278,-2.0184 -8.6866,-4.9053 -10.46996,-6.6039c-0.00609,-0.0034 -0.01334,-0.0023 -0.01944,-0.0058c-0.55926,-0.3198 -1.24354,-1.0762 -1.78336,-1.5438zM257.77933,141.31895l-1.96659,-0.2136c-3.19689,0.1813 -5.57712,1.0647 -8.78242,2.2483c-3.2988,1.2182 -5.29933,2.9907 -8.77884,2.4572c-1.43759,-0.2205 -4.94989,-1.9676 -8.15151,-2.3036c-3.71486,-0.3892 -6.0248,0.6316 -8.4791,2.8071c-3.08762,2.739 -8.52648,1.9919 -12.00841,0.4527c-4.34934,-1.9273 -8.03993,-9.2079 -9.84756,-9.1247c-4.86499,0.2217 -7.95377,-3.3014 -6.21528,-7.821c0.18197,-0.47 0.57995,-1.7818 1.15623,-2.4434c-4.99359,0.4399 -7.04518,3.1501 -7.04518,3.1501c-1.78945,2.7459 -2.53919,5.7644 -2.69447,9.1685c-0.07397,1.6155 0.3858,3.0555 0.71097,4.5462h0.00116c0,0 3.04633,8.6859 13.6741,9.3799c5.45945,-0.2333 10.85092,0.2991 15.5788,2.0658c0.95241,0.3557 1.87802,0.7541 2.78304,1.1859c0,0 15.18093,6.3176 24.05065,4.0774c8.86983,-2.2402 11.6929,-7.9203 11.6929,-7.9203l0.78987,-0.0012c-0.0643,-0.0069 -0.5933,-0.0023 -0.78987,0.0012c0.56293,-0.761 1.3673,-1.4157 2.02732,-1.7021c1.54192,0.1513 10.39794,6.56695 12.64726,4.74825c-4.1576,-3.545 -10.91969,-11.45725 -10.35308,-14.75865zM261.94187,139.91255l1.97016,-1.3522l0.00368,0.0011c1.33085,-0.9157 2.99779,-1.5046 3.68449,-2.9745c3.04886,-6.5116 -6.44085,-14.1443 -11.06084,-16.2032c-0.07638,-0.0324 -0.75825,-0.2725 -3.35449,0.1951c-7.39809,3.3407 -8.45241,14.1536 -22.45157,11.2991c-11.41511,-2.328 -22.4771,-3.3095 -34.05843,-3.5554c-0.34093,-0.0116 -0.666,-0.0081 -0.98508,0c0.19773,1.306 -2.13648,5.1362 -0.08615,6.4618c2.50641,1.619 5.85008,0.1016 7.79366,3.6086c2.41542,4.3544 5.83673,8.7632 11.64069,8.523c5.0664,-0.2124 8.46218,-5.1928 13.90335,-5.2644c5.61715,-0.0739 8.70719,3.7425 9.73598,3.8995c3.27086,0.5035 4.78977,-2.1316 7.89557,-3.2667c3.73429,-1.3776 6.37424,-1.5208 10.3402,-1.5242l1.36247,-0.2333c0.33484,-0.8175 0.76424,-1.4353 1.24102,-1.7321c0.08857,-0.067 0.17598,-0.1189 0.25972,-0.149c0.00483,-0.0023 0.00841,-0.0057 0.01208,-0.0069c0,0.0012 0,0.0023 -0.00116,0.0035c0.26077,-0.0889 0.50704,-0.0162 0.75215,0.2506c0.45734,0.6616 0.92561,1.3383 1.4025,2.0196zM307.73197,139.91945c-1.79796,-4.5993 -12.95956,-6.1351 -12.95956,-6.1351c-1.58689,0.4296 -7.18576,-0.6997 -11.02564,-1.6951h0.00126c-0.00609,-0.0012 -0.01219,-0.0035 -0.01818,-0.0046c-0.87235,-0.2275 -1.63784,-0.4435 -2.26024,-0.6363c-0.00126,0.8557 -0.2075,2.1848 -1.36121,2.9919c-1.36604,1.5751 -4.61872,2.5912 -6.92982,0.448c-2.95903,-2.7482 -3.85922,-6.4549 -5.79313,-9.7771c-0.53866,-0.9237 -1.75184,-2.8152 -2.24196,-4.1466c-2.21654,-1.4861 -4.45735,-2.3799 -7.22347,-2.358c0.03152,0.0197 0.06672,0.0393 0.0934,0.0578c3.41763,2.291 10.49549,7.2655 11.48067,12.2113c0.66726,3.3614 -0.76193,7.1882 -2.85711,8.7147l0.01093,0.0035l-0.10191,0.0577c-0.1929,0.1328 -0.39073,0.2448 -0.59456,0.3372l-2.82192,1.6051c4.32875,6.0404 9.52375,12.247 16.63312,14.9457c7.53646,2.5785 17.05044,3.4445 23.59572,-1.8245c0.18439,-0.2598 0.58468,-0.6351 1.3175,-1.1825c3.73913,-2.7933 4.85407,-9.0138 3.05611,-13.6131z"/></g><g><path d="M274.2542,127.06581c-0.4377,7.5819 -8.5958,2.8764 -6.3233,-1.9689c1.7113,-3.6512 6.5461,-1.9261 6.3233,1.9689z" fill="#272525"/><path d="M272.7426,128.35561c-1.754,3.2113 -6.0819,-0.9654 -3.5069,-3.2587c2.306,-2.0519 4.4584,1.5174 3.5069,3.2587z" fill="#ffffff"/><path d="M272.0787,126.23901c0.2967,0 0.5646,0.1201 0.7586,0.3152c0.1952,0.194 0.3153,0.4619 0.3153,0.7587c0,0.2967 -0.1201,0.5646 -0.3153,0.7586c-0.194,0.1952 -0.4619,0.3153 -0.7586,0.3153c-0.2968,0 -0.5647,-0.1201 -0.7587,-0.3153c-0.1951,-0.194 -0.3152,-0.4619 -0.3152,-0.7586c0,-0.2968 0.1201,-0.5647 0.3152,-0.7587c0.194,-0.1951 0.4619,-0.3152 0.7587,-0.3152z" fill="#272525"/></g><g><path d="M263.5683,133.01841c-2.1928,8.403 -14.2563,0.4908 -10.2263,-5.7656c4.2356,-6.5727 11.881,-0.5716 10.2263,5.7656z" fill="#272525"/><path d="M257.6595,125.90991c2.5878,0.1178 5.1698,2.3129 4.4573,6.5057c-0.8406,4.9388 -8.06,1.6409 -7.7609,-3.6997c0.0808,-1.4862 1.4849,-2.8892 3.3036,-2.806z" fill="#ffffff"/><path d="M260.7254,128.79901c0.5577,0 1.0635,0.2263 1.4307,0.5924c0.366,0.3672 0.5923,0.873 0.5923,1.4307c0,0.5577 -0.2263,1.0635 -0.5923,1.4307c-0.3672,0.3661 -0.873,0.5924 -1.4307,0.5924c-0.5578,0 -1.0636,-0.2263 -1.4308,-0.5924c-0.366,-0.3672 -0.5923,-0.873 -0.5923,-1.4307c0,-0.5577 0.2263,-1.0635 0.5923,-1.4307c0.3672,-0.3661 0.873,-0.5924 1.4308,-0.5924z" fill="#272525"/></g><g><path d="M191.41943,122.82925c0.39146,0.81429 0.81366,1.70095 1.2962,2.50246l2.47455,2.56227c3.04126,2.51875 1.4629,2.61955 0.25737,3.96785c-1.20547,1.34818 -3.41981,0.88113 -3.41981,0.88113c-0.55787,-0.09688 -3.03559,-2.18249 -3.03559,-2.18249v0c-0.38964,-0.12734 -0.78084,-0.27248 -1.137,-0.50854c-2.72509,-1.74752 -4.16349,-3.20652 -5.65759,-6.04795c-2.25336,-4.23801 -2.48586,-8.71104 0.6913,-12.34079c4.32638,-4.95675 9.70952,-6.69958 16.95267,-6.29141c-2.38422,2.16239 -5.64178,4.46021 -8.09975,7.52761c-2.45874,3.06523 -2.05103,6.42562 -0.32234,9.92986z" fill="#ffffff"/><path d="M195.10085,126.6339c0,0 2.22186,1.58344 1.72791,2.26541c-0.49395,0.68197 -1.37258,0.6 -2.69606,-0.7013c-0.00181,-0.0018 -0.00258,-0.00396 -0.00411,-0.00469c-2.85984,-2.30872 -5.21996,-7.49428 -5.22579,-10.63478c-0.00915,-4.2621 4.23081,-9.45154 9.56631,-11.5451c-6.29917,-0.4868 -14.29134,2.8034 -16.20668,9.33145c-1.27144,4.33166 1.60342,9.7238 5.03707,12.36031c0.81575,0.6253 2.05652,1.69747 3.99593,3.31401c0.00895,0.00785 2.00333,1.25181 1.28862,1.8199c-0.74011,0.58945 -2.13808,-0.63514 -2.77594,-1.00871c-5.22833,-3.06428 -9.75446,-7.62722 -9.75226,-13.41439c0.00587,-13.5469 15.32903,-14.80435 21.94192,-13.55288c-4.85261,2.69263 -10.24472,7.54451 -11.01609,11.95562c-0.60944,3.4881 1.28828,7.69462 4.11915,9.81516z" fill="#272525"/></g><g fill="#004492"><path d="M312.26374,149.00801c-6.7298,4.5831 -23.642,2.732 -20.6039,-8.4227c2.5242,-9.2701 24.7274,-13.5149 26.1166,-1.6535c0.5127,4.3891 -2.0335,7.7043 -5.5127,10.0762zM293.71644,141.59001c-0.5912,1.7297 0.3487,3.5034 1.8037,4.6605c5.6131,4.4653 19.15,3.6235 20.3521,-4.9134c1.3787,-9.8095 -19.1004,-8.7032 -22.1558,0.2529z"/><path d="M315.87104,141.33711c-1.202,8.5369 -14.7389,9.3787 -20.3521,4.9134c-1.4538,-1.1571 -2.3949,-2.9308 -1.8037,-4.6605c3.0566,-8.9561 23.5357,-10.0624 22.1558,-0.2529z"/></g><g><path d="M246.31839,198.02658c-4.12199,1.2421 -7.33795,-1.26849 -10.17032,-4.51238c-6.52695,-7.4793 -4.4954,-20.71413 -6.26103,-33.84457c-0.649,-4.74642 -0.96726,-8.17148 -2.09944,-11.69568c2.69884,-3.45754 8.28831,0.52804 9.35727,2.19921c1.94894,3.04511 2.25696,8.19443 3.19316,11.27387c-0.14935,-0.08144 -0.07085,1.97842 0.67892,3.83788c2.24676,5.5775 7.2619,14.78292 8.14342,21.34703c0.59107,4.39619 1.39336,10.08271 -2.842,11.39464z" fill="#ffffff"/><path d="M245.82337,199.25549c-3.5196,0.95174 -7.97061,-1.3655 -10.15156,-4.1167c-5.59777,-7.06276 -5.75268,-21.50329 -6.08167,-30.1857c-0.18682,-4.9839 -2.96755,-15.85354 -2.98502,-15.9235c-0.43804,-1.74173 -0.31593,-3.43665 0.33854,-3.929c0.88171,-0.66246 1.55807,2.03758 1.55807,2.03758l0.00302,0.06359c4.31548,13.42083 1.26265,29.32866 6.90289,42.94746c0.41593,1.00312 1.13229,2.1265 2.01722,3.171c0.48675,-2.30897 2.53133,-5.99961 2.72169,-5.47586c-0.12791,1.26474 -0.47874,5.40425 -1.39964,6.82852c1.18753,1.08427 2.51898,1.945 3.80843,2.22989c0.38286,0.08451 0.84155,0.08652 1.31294,0.02938c-0.87336,-1.76016 0.01658,-7.30549 0.55116,-7.96662c0,0 1.15145,5.50252 0.80377,7.64488c0.42189,-0.15167 0.81167,-0.33867 1.10831,-0.55563c2.20982,-1.61993 2.41631,-4.9021 2.07979,-7.40382c-0.94745,-7.07831 -4.49929,-14.33071 -7.18665,-20.90064c-0.38874,-0.94628 -2.69614,-6.6233 -2.75675,-7.18625c-0.04668,-0.45182 0.66833,-0.66944 0.98663,-0.60544c0.06403,0.0124 0.28381,0.09513 0.60203,0.22294c1.06929,1.34527 1.64897,3.25168 2.14819,4.45012c2.34376,5.76933 9.46856,21.7267 8.64956,28.17152c-0.34163,2.69618 -2.31482,5.71664 -5.03094,6.45227z" fill="#272525"/></g><g><path d="M202.16675,145.6318c-1.8605,2.70039 -3.53039,5.71411 -5.33444,9.18257c-2.19134,4.22304 -7.33433,17.57085 -10.08822,20.98757c-2.64653,3.2892 -7.23497,5.79219 -10.44376,3.05152c-3.17809,-2.71443 -0.83982,-8.82735 1.49534,-12.32765c4.8256,-7.26095 6.69558,-10.93488 12.11482,-17.36005c0.15855,-0.09289 0.3066,-0.21452 0.41998,-0.40081c1.9282,-3.16457 4.98125,-4.65763 8.61397,-4.22918c0.73587,0.0882 2.01078,0.48455 3.22229,1.09604z" fill="#ffffff"/><path d="M202.50975,148.45763c-8.7867,13.11403 -12.46681,29.21517 -19.0117,31.89335c-2.05115,0.84028 -5.52427,0.42636 -7.2109,-1.07049c-6.32314,-5.61524 4.91386,-21.03848 11.35903,-28.26015c0.23045,-0.28416 0.71511,-0.86412 1.59349,-1.89777c3.44023,-4.05286 1.73817,-0.48819 1.3197,0.34931c-0.02379,0.0527 -0.05546,0.10937 -0.08314,0.16494l-0.0013,0.00337c-2.1225,4.16913 -13.05632,16.82981 -14.02294,23.5663c-0.3735,2.60799 0.81795,4.28008 2.53566,4.92071c-0.59493,-1.62384 2.48386,-7.50603 2.72561,-6.85349c-0.13467,1.36594 -0.51073,6.07093 -1.59842,7.12525c1.28323,0.13705 2.70612,-0.22616 3.95989,-1.10053c-0.49466,-2.01919 0.95252,-7.07107 1.54088,-7.64774c0,0 0.32058,3.64687 0.13412,6.15889c3.86937,-4.12764 6.04554,-11.42312 8.0843,-16.30152c1.65962,-3.96934 3.79744,-8.24562 6.38712,-12.2791c0.00879,-0.01384 0.01147,-0.03133 0.01948,-0.04426c0.53168,-0.8381 1.95471,-3.99583 3.15818,-3.47477c1.20417,0.52008 -0.88927,4.74608 -0.88906,4.74769zM189.05261,149.48942c0.00378,-0.00443 0.00755,-0.00884 0.01125,-0.01319v0c0,0 -0.00371,0.00435 -0.01125,0.01319z" fill="#272525"/></g></g></g></svg>