<svg version="1.1" xmlns="http://www.w3.org/2000/svg" xmlns:xlink="http://www.w3.org/1999/xlink" width="153.92975" height="88.05796" viewBox="0,0,153.92975,88.05796"><g transform="translate(-157.2273,-100.12451)"><g data-paper-data="{&quot;isPaintingLayer&quot;:true}" fill-rule="nonzero" stroke="none" stroke-width="1.15473" stroke-linecap="butt" stroke-linejoin="miter" stroke-miterlimit="10" stroke-dasharray="" stroke-dashoffset="0" style="mix-blend-mode: normal"><g><path d="M184.7221,141.7609c-0.9076,0.993 -2.0635,0.6616 -3.3025,1.157c-3.1363,1.2806 -5.6132,0.9503 -8.7517,-0.3291c-2.1039,-1.0335 -1.6501,-4.3776 0.1663,-5.7817c2.1466,-1.649 4.2101,-0.9065 6.9353,-0.9896c1.8579,-0.0416 3.0554,-0.7829 4.7898,-0.164c2.2286,0.8233 1.7748,4.3764 0.1628,6.1074z" fill="#ffffff"/><path d="M171.0085,142.3983c-0.4399,-0.7518 -0.8244,-2.6871 -0.5011,-3.5104c2.0808,-5.2968 9.9318,-3.9065 14.3371,-3.8095v0.3534c-3.3014,1.3522 -8.2967,0.142 -11.0785,2.0554c-0.8187,0.5624 -1.9907,1.7044 -1.7332,2.8233c1.3152,-1.09 5.597,-2.0335 5.3475,-1.5889c-0.7863,0.5497 -3.1962,2.2945 -4.6304,2.6928c0.6663,0.6005 1.6663,1.0497 2.7367,1.3314c1.4469,-1.2309 4.3776,-2.523 4.948,-2.4734c0,0 -1.5531,1.5831 -3.0381,2.7933c0.8868,0.0681 1.7044,0.0162 2.2841,-0.1686c1.5519,-0.4907 2.9041,-1.3891 4.5623,-1.8037c3.9423,2.1975 -9.9364,6.9169 -13.2344,1.3049z" fill="#272525"/></g><g><path d="M258.1907,117.5773c-2.9561,-2.8983 -5.8013,-2.284 -8.8879,-2.6674c-5.7414,-0.1986 -11.0266,-2.015 -13.9376,-7.0727c-1.4042,-2.4377 -1.0497,-6.1143 0.1385,-6.8891c3.6825,-2.3996 7.8949,0.7759 9.8095,5.2505c2.8221,6.5924 11.5161,1.7887 13.1431,9.306c0.1698,0.5808 0,1.4861 -0.2656,2.0727zM257.4632,115.7101c-2.023,-5.9861 -8.9572,-2.9734 -12.6177,-6.1836c-2.3787,-2.0854 -3.1928,-6.3914 -6.545,-7.0958c-0.8972,-0.1893 -2.0347,0.209 -2.1166,1.373c0.1074,5.7055 4.463,8.3649 9.1015,9.3071c5.1074,1.0381 10.5993,0.1559 12.1778,2.5993z" fill="#272525"/><path d="M257.4632,115.7101c-1.5785,-2.4434 -7.0704,-1.5612 -12.1778,-2.5993c-4.6385,-0.9422 -8.9941,-3.6016 -9.1015,-9.3071c0.0819,-1.164 1.2194,-1.5623 2.1166,-1.373c3.3522,0.7044 4.1663,5.0104 6.545,7.0958c3.6605,3.2102 10.5947,0.1975 12.6177,6.1836z" fill="#4d58e1"/></g><path d="M303.6606,139.202c1.396,2.7644 0.5265,6.2494 0.5288,8.8672c-0.8706,2.612 -2.321,4.4607 -4.0646,6.2043c-15.7067,14.0519 -33.6085,0.3026 -41.2401,-14.3267c-0.4815,-0.9227 -0.9596,-1.2171 -1.4215,-1.8095c-0.3025,-0.6004 -1.0819,-0.8556 -1.0819,-0.0854c0,0 -0.5208,3.0669 -0.5208,3.0681c-0.0601,4.5612 1.0577,6.5161 3.3187,9.9815c0.1582,0.2425 1.2725,1.4238 0.4815,1.8984c-0.0497,0.2378 -1.4307,0.7205 -1.8776,0.7228c-0.3557,0.082 -3.7968,-1.4353 -4.9065,-1.5369c-0.217,-0.1224 -4.4468,9.0819 -16.9837,10.06c-5.7217,0.4469 -15.597,-1.7864 -20.2713,-5.3718c-3.9319,-3.0162 -9.7806,-3.2795 -14.4977,-3.0266c-5.6062,0.2991 -13.8083,-3.254 -15.2182,-8.8741c-0.0277,0.0127 -0.0577,0.0231 -0.0889,0.0335c-0.9076,-2.6986 -1.8395,-12.2598 0.9249,-14.4688c2.4666,-3.4676 6.1675,-6.1016 10.3788,-4.9307c11.0069,1.2402 22.374,3.5 33.3948,4.0658c9.5681,0.492 12.8325,-7.2228 19.657,-12.0981c1.4007,-0.7355 4.9549,-1.1536 7.8406,0c2.5958,1.0381 15.5427,10.3164 15.6489,10.4065c3.0092,2.5381 7.1801,2.8475 10.5646,3.6639c0.0243,-0.0104 6.9481,1.0046 11.5808,1.9527c3.3361,1.3187 6.6374,2.9792 7.8534,5.6039" fill="#ffffff"/><path d="M229.2058,128.6535c0.5774,-0.2425 10.3926,2.4561 13.664,-3.3406c3.2713,-5.7968 9.045,-8.455 9.045,-8.455c6.7355,1.7217 12.8971,11.7968 12.8971,11.7968c0,0 1.6294,4.3718 -0.4815,7.8441c-2.1108,3.4722 -5.7494,2.9387 -5.7494,2.9387c-2.381,-4.1812 -2.4584,0.1421 -2.4584,0.1421c0,0 -1.6478,-0.3349 -2.0901,0.1859c-0.4422,0.5208 -5.2921,-1.5347 -11.5473,2.7956c-6.2552,4.3302 -8.1801,0.866 -9.7193,0.0958c-1.5393,-0.7702 -1.1548,-3.657 -12.7021,1.7321c-11.5473,5.3892 -16.0704,-4.8094 -16.0704,-4.8094c0,0 -0.4803,-3.6594 -3.8683,-3.9838c-3.388,-0.3245 -4.888,-1.6952 -5.754,-2.6571c-0.8661,-0.9619 1.5392,-7.217 1.5392,-7.217c5.2921,-0.7703 32.7182,3.1743 33.2955,2.9318z" fill="#834ce0"/><path d="M263.5579,120.4284c0,0 10.6074,8.4849 13.4723,9.8152c0,0 -1.179,5.5658 -4.4261,4.5993c-3.2471,-0.9665 -8.9503,-10.4688 -9.0462,-14.4145z" fill="#4d58e1"/><g fill="#272525"><path d="M199.5662,155.7955c0.0589,-0.0012 0.1189,0 0.1778,-0.0012c0.2968,0.0508 0.2818,0.0485 -0.1778,0.0231z"/><path d="M300.7252,154.2724c0,0 -0.0115,0.0034 -0.015,0.0046c-2.963,3.4596 -7.0207,5.7505 -11.3752,6.0612c-6.9908,0.4988 -14.6859,-0.7518 -19.8499,-6.015c-4.7124,-3.4088 -8.0207,-8.5231 -10.8279,-13.485c-0.9492,-1.6478 -1.1212,-2.2171 -1.6882,-3.0739c-1.2586,6.7425 2.3118,13.0439 4.5289,15.3129c-0.7252,1.9758 -4.7021,1.1998 -6.3499,0.2945c-0.8499,-0.4677 -2.8164,0.9007 -2.8164,0.9007c0,0 -2.4365,7.4387 -14.1281,8.478c-14.4318,1.2829 -17.6039,-1.9965 -21.5277,-3.5889c-0.2886,-0.1178 -0.5334,-0.2286 -0.7575,-0.336c-5.2251,-2.3753 -10.724,-2.6351 -16.1743,-3.0312c-1.7471,-0.127 -14.2979,-2.4307 -15.5542,-12.6963l0.0127,0.0035c-1.7344,-3.791 -0.1201,-10.3856 2.3741,-14.1501c4.5231,-5.239 10.1986,-4.4018 10.1986,-4.4018c4.2991,0.1975 15.7956,0.8938 19.627,1.5023c6.1674,0.9792 11.926,1.7841 18.1962,1.5531c7.515,-0.2771 8.7829,-7.2644 14.2863,-10.4769c4.6259,-2.7009 11.2806,-0.8175 15.1871,2.4065c0.3637,0.3002 0.7736,0.6513 1.1824,1.03c0.2621,0.2414 11.799,8.7679 11.799,8.7679v0c3.776,0.6051 11.4619,2.0127 11.9307,2.2321c3.8487,0.8071 15.0381,1.7586 16.1928,10.2748c1.1548,8.5161 -4.4515,12.433 -4.4515,12.433zM264.2785,122.1016c1.6859,2.3903 2.4665,5.426 3.7517,7.9099c0.8845,1.6997 3.9607,4.3094 6.0161,3.3568c0.515,-0.2379 0.9342,-0.8106 1.3418,-1.3083c0.2552,-0.3326 0.6802,-0.9873 0.7333,-1.7333c-0.0554,-0.0254 -0.1074,-0.045 -0.1617,-0.0716c-4.8949,-2.0184 -8.2679,-4.9053 -9.9653,-6.6039c-0.0058,-0.0034 -0.0127,-0.0023 -0.0185,-0.0058c-0.5323,-0.3198 -1.1836,-1.0762 -1.6974,-1.5438zM255.1769,140.8047l-1.8718,-0.2136c-3.0428,0.1813 -5.3083,1.0647 -8.3591,2.2483c-3.1398,1.2182 -5.0439,2.9907 -8.3557,2.4572c-1.3683,-0.2205 -4.7113,-1.9676 -7.7586,-2.3036c-3.5358,-0.3892 -5.7344,0.6316 -8.0704,2.8071c-2.9388,2.739 -8.1155,1.9919 -11.4296,0.4527c-4.1397,-1.9273 -7.6524,-9.2079 -9.3729,-9.1247c-4.6305,0.2217 -7.5704,-3.3014 -5.9157,-7.821c0.1732,-0.47 0.552,-1.7818 1.1005,-2.4434c-4.7529,0.4399 -6.7056,3.1501 -6.7056,3.1501c-1.7032,2.7459 -2.4168,5.7644 -2.5646,9.1685c-0.0704,1.6155 0.3672,3.0555 0.6767,4.5462h0.0011c0,0 2.8995,8.6859 13.015,9.3799c5.1963,-0.2333 10.3279,0.2991 14.8279,2.0658c0.9065,0.3557 1.7875,0.7541 2.6489,1.1859c0,0 14.4492,6.3176 22.8914,4.0774c8.4423,-2.2402 11.1293,-7.9203 11.1293,-7.9203l0.7518,-0.0012c-0.0612,-0.0069 -0.5647,-0.0023 -0.7518,0.0012c0.5358,-0.761 1.3014,-1.4157 1.9296,-1.7021c1.4676,0.1513 4.2401,3.4815 6.381,1.6628c-3.9572,-3.545 -4.7367,-8.3718 -4.1974,-11.6732zM259.1388,139.3983l1.8752,-1.3522l0.0035,0.0011c1.2667,-0.9157 2.8533,-1.5046 3.5069,-2.9745c2.9019,-6.5116 -6.1304,-14.1443 -10.5277,-16.2032c-0.0727,-0.0324 -0.7217,-0.2725 -3.1928,0.1951c-7.0415,3.3407 -8.045,14.1536 -21.3694,11.2991c-10.8649,-2.328 -21.3937,-3.3095 -32.4168,-3.5554c-0.3245,-0.0116 -0.6339,-0.0081 -0.9376,0c0.1882,1.306 -2.0335,5.1362 -0.082,6.4618c2.3856,1.619 5.5681,0.1016 7.418,3.6086c2.299,4.3544 5.5554,8.7632 11.0796,8.523c4.8222,-0.2124 8.0543,-5.1928 13.2332,-5.2644c5.3464,-0.0739 8.2875,3.7425 9.2667,3.8995c3.1132,0.5035 4.5589,-2.1316 7.515,-3.2667c3.5543,-1.3776 6.067,-1.5208 9.8418,-1.5242l1.2968,-0.2333c0.3187,-0.8175 0.7274,-1.4353 1.1812,-1.7321c0.0843,-0.067 0.1675,-0.1189 0.2472,-0.149c0.0046,-0.0023 0.008,-0.0057 0.0115,-0.0069c0,0.0012 0,0.0023 -0.0011,0.0035c0.2482,-0.0889 0.4826,-0.0162 0.7159,0.2506c0.4353,0.6616 0.881,1.3383 1.3349,2.0196zM302.7218,139.4052c-1.7113,-4.5993 -12.3349,-6.1351 -12.3349,-6.1351c-1.5104,0.4296 -6.8394,-0.6997 -10.4942,-1.6951h0.0012c-0.0058,-0.0012 -0.0116,-0.0035 -0.0173,-0.0046c-0.8303,-0.2275 -1.5589,-0.4435 -2.1513,-0.6363c-0.0012,0.8557 -0.1975,2.1848 -1.2956,2.9919c-1.3002,1.5751 -4.3961,2.5912 -6.5958,0.448c-2.8164,-2.7482 -3.6732,-6.4549 -5.5139,-9.7771c-0.5127,-0.9237 -1.6674,-2.8152 -2.1339,-4.1466c-2.1097,-1.4861 -4.2425,-2.3799 -6.8753,-2.358c0.03,0.0197 0.0635,0.0393 0.0889,0.0578c3.2529,2.291 9.9896,7.2655 10.9273,12.2113c0.6351,3.3614 -0.7252,7.1882 -2.7194,8.7147l0.0104,0.0035l-0.097,0.0577c-0.1836,0.1328 -0.3719,0.2448 -0.5659,0.3372l-2.6859,1.6051c4.1201,6.0404 9.0647,12.247 15.8314,14.9457c7.1732,2.5785 16.2286,3.4445 22.4584,-1.8245c0.1755,-0.2598 0.5565,-0.6351 1.254,-1.1825c3.5589,-2.7933 4.6201,-9.0138 2.9088,-13.6131z"/></g><g><path d="M248.4783,123.433c-2.7748,0.6582 -6.4261,-1.6317 -8.7332,-3.022c-6.052,-3.6501 -12.9677,7.7263 -22.9573,4.224c-14.9249,-5.2332 -5.6166,-16.0345 0.2333,-13.4018c1.2921,0.5832 2.5439,1.261 3.8406,1.8268c4.4146,1.9227 11.7079,-4.8048 20.6847,0.9942c3.1986,2.0647 3.6582,4.4619 5.8233,7.2275c0.3719,0.4734 1.2471,1.1247 1.5023,1.5762c0.1178,0.2125 -0.2136,0.5335 -0.3937,0.5751zM246.1099,121.9053c-2.8937,-3.8707 -8.4457,-9.0762 -14.105,-7.9146c-3.9053,1.2344 -8.8857,4.201 -12.7275,0.9192c-1.627,-1.3926 -4.3325,-3.0242 -6.7009,-1.6282c-1.381,0.813 -1.7043,2.6917 -1.4942,3.619c0.7575,3.3648 4.3268,5.4641 7.8557,6.0138c6.7159,1.0439 11.3209,-4.0704 16.7909,-5.3972c3.7425,-0.3407 7.3672,2.9711 10.381,4.388z" fill="#272525"/><path d="M246.1099,121.9053c-3.0138,-1.4169 -6.6385,-4.7287 -10.381,-4.388c-5.47,1.3268 -10.075,6.4411 -16.7909,5.3972c-3.5289,-0.5497 -7.0982,-2.649 -7.8557,-6.0138c-0.2101,-0.9273 0.1132,-2.806 1.4942,-3.619c2.3684,-1.396 5.0739,0.2356 6.7009,1.6282c3.8418,3.2818 8.8222,0.3152 12.7275,-0.9192c5.6593,-1.1616 11.2113,4.0439 14.105,7.9146z" fill="#4d58e1"/></g><g><path d="M274.2542,127.0658c-0.4377,7.5819 -8.5958,2.8764 -6.3233,-1.9689c1.7113,-3.6512 6.5461,-1.9261 6.3233,1.9689z" fill="#272525"/><path d="M272.7426,128.3556c-1.754,3.2113 -6.0819,-0.9654 -3.5069,-3.2587c2.306,-2.0519 4.4584,1.5174 3.5069,3.2587z" fill="#ffffff"/><path d="M272.0787,126.239c0.2967,0 0.5646,0.1201 0.7586,0.3152c0.1952,0.194 0.3153,0.4619 0.3153,0.7587c0,0.2967 -0.1201,0.5646 -0.3153,0.7586c-0.194,0.1952 -0.4619,0.3153 -0.7586,0.3153c-0.2968,0 -0.5647,-0.1201 -0.7587,-0.3153c-0.1951,-0.194 -0.3152,-0.4619 -0.3152,-0.7586c0,-0.2968 0.1201,-0.5647 0.3152,-0.7587c0.194,-0.1951 0.4619,-0.3152 0.7587,-0.3152z" fill="#272525"/></g><g><path d="M263.5683,133.0184c-2.1928,8.403 -14.2563,0.4908 -10.2263,-5.7656c4.2356,-6.5727 11.881,-0.5716 10.2263,5.7656z" fill="#272525"/><path d="M257.6595,125.9099c2.5878,0.1178 5.1698,2.3129 4.4573,6.5057c-0.8406,4.9388 -8.06,1.6409 -7.7609,-3.6997c0.0808,-1.4862 1.4849,-2.8892 3.3036,-2.806z" fill="#ffffff"/><path d="M260.7254,128.799c0.5577,0 1.0635,0.2263 1.4307,0.5924c0.366,0.3672 0.5923,0.873 0.5923,1.4307c0,0.5577 -0.2263,1.0635 -0.5923,1.4307c-0.3672,0.3661 -0.873,0.5924 -1.4307,0.5924c-0.5578,0 -1.0636,-0.2263 -1.4308,-0.5924c-0.366,-0.3672 -0.5923,-0.873 -0.5923,-1.4307c0,-0.5577 0.2263,-1.0635 0.5923,-1.4307c0.3672,-0.3661 0.873,-0.5924 1.4308,-0.5924z" fill="#272525"/></g><g><path d="M190.1413,121.993c0.0958,0.8984 0.1963,1.8753 0.3822,2.7922l1.4723,3.2436c2.0208,3.3926 0.5,2.9584 -1.0878,3.8245c-1.5877,0.866 -3.5173,-0.3164 -3.5173,-0.3164c-0.4931,-0.2783 -2.1282,-3.0739 -2.1282,-3.0739v0c-0.3244,-0.2506 -0.6443,-0.5185 -0.9007,-0.8603c-1.9815,-2.56 -2.8475,-4.4168 -3.3025,-7.5947c-0.7021,-4.7482 0.5785,-9.0403 4.7887,-11.3948c5.7378,-3.2194 11.3937,-3.0566 18.0808,-0.2437c-2.9712,1.2379 -6.8106,2.3106 -10.1547,4.3764c-3.3441,2.0635 -4.0866,5.3661 -3.6328,9.2471z" fill="#ffffff"/><path d="M192.3341,126.8117c0,0 1.5624,2.2367 0.8684,2.7136c-0.694,0.4769 -1.4943,0.1051 -2.3049,-1.5646c-0.0011,-0.0023 -0.0011,-0.0046 -0.0023,-0.0058c-1.9203,-3.1339 -2.4053,-8.8106 -1.3579,-11.7713c1.4203,-4.0185 7.1547,-7.4861 12.8833,-7.6697c-5.7714,-2.5705 -14.4041,-2.1502 -18.3972,3.3579c-2.6501,3.6547 -1.7494,9.6986 0.6016,13.3337c0.5589,0.8626 1.3684,2.2887 2.6536,4.4619c0.0058,0.0104 1.4677,1.851 0.6039,2.1466c-0.8949,0.3072 -1.8014,-1.3152 -2.2771,-1.881c-3.8984,-4.6398 -6.6328,-10.4561 -4.6905,-15.9076c4.5473,-12.7609 19.4052,-8.8083 25.2158,-5.4122c-5.4745,0.9099 -12.1812,3.6732 -14.3868,7.5704c-1.7436,3.0819 -1.366,7.6812 0.5901,10.6281z" fill="#272525"/></g><path d="M305.5786,149.008c-6.7298,4.5831 -23.642,2.732 -20.6039,-8.4227c2.5242,-9.2701 24.7274,-13.5149 26.1166,-1.6535c0.5127,4.3891 -2.0335,7.7043 -5.5127,10.0762zM287.0313,141.59c-0.5912,1.7297 0.3487,3.5034 1.8037,4.6605c5.6131,4.4653 19.15,3.6235 20.3521,-4.9134c1.3787,-9.8095 -19.1004,-8.7032 -22.1558,0.2529z" fill="#272525"/><path d="M309.1859,141.3371c-1.202,8.5369 -14.7389,9.3787 -20.3521,4.9134c-1.4538,-1.1571 -2.3949,-2.9308 -1.8037,-4.6605c3.0566,-8.9561 23.5357,-10.0624 22.1558,-0.2529z" fill="#1b094b"/><g><path d="M281.7599,166.9398c-7.6016,13.5681 -28.2539,-3.8591 -40.1777,-8.8614c-0.1016,-0.0428 -4.6789,-3.806 0.4781,-5.7979c3.4711,-1.3407 10.1478,3.0519 10.8256,2.6327c10.3394,3.0197 33.6535,3.4931 28.874,12.0266z" fill="#ffffff"/><path d="M282.902,167.7215c-0.7887,2.4723 -4.1698,4.5762 -6.6166,4.9619c-3.0508,0.4815 -5.9931,0.3395 -8.9227,-0.6016c-5.6096,-1.8014 -22.4237,-9.7829 -25.7966,-12.7921c-0.022,-0.0197 -1.1074,-0.9076 -0.4042,-1.6051c0.4873,-0.4827 2.1305,0.6143 2.1305,0.6143c4.7771,2.8557 9.7471,5.4873 14.5969,8.2205c4.0173,2.2633 12.4007,5.5139 18.2448,4.3349c-2.0797,-1.0958 -5.0912,-4.1293 -4.5335,-4.164c1.2864,0.5208 5.7921,2.2552 6.3984,3.6028c0.888,-0.3845 1.687,-0.9076 2.3452,-1.6178c1.015,-1.0923 1.0728,-2.2344 0.6178,-3.306c-1.9757,0.2887 -6.9526,-2.075 -7.4365,-2.7667c0,0 3.649,0.2852 6.0901,0.8845c-1.291,-1.284 -3.0727,-2.2979 -4.2829,-2.7286c-6.1385,-2.1917 -23.6015,-5.5808 -25.2644,-6.2667c0,0 -1.5554,-0.2945 -1.1709,-1.1132c0.3846,-0.8187 1.6248,-0.1744 1.6248,-0.1744l1.4757,0.2171l-0.0139,0.007c5.3857,0.8083 10.7945,1.8129 16.1282,2.8648c4.9076,0.9666 17.1697,3.9735 14.7898,11.4284z" fill="#272525"/></g><g><path d="M265.0822,183.2399c-2.3118,3.6317 -6.3869,3.8291 -10.6501,3.2206c-9.8268,-1.4053 -16.9272,-12.7575 -26.836,-21.5519c-3.59,-3.172 -6.0669,-5.5589 -9.2251,-7.4896c-0.2125,-4.381 6.6235,-5.0104 8.5242,-4.4422c3.4642,1.0346 7.0589,4.7344 9.7783,6.4561c-0.1663,0.0358 1.2378,1.545 3.0196,2.4642c5.3429,2.7586 15.1512,6.4584 20.1039,10.8556c3.3175,2.9445 7.6373,6.7286 5.2852,10.4872z" fill="#ffffff"/><path d="M265.5094,184.494c-2.045,3.0185 -6.9295,4.1686 -10.3776,3.5081c-8.851,-1.6963 -18.3948,-12.5346 -24.3117,-18.8972c-3.3949,-3.6536 -12.5969,-10.0727 -12.6558,-10.1143c-1.4688,-1.0335 -2.4827,-2.3972 -2.3083,-3.1974c0.2355,-1.0774 2.5104,0.5265 2.5104,0.5265l0.0438,0.0462c12.03,7.3499 20.1016,21.3937 33.2644,28.0288c0.9699,0.4884 2.2459,0.8718 3.5981,1.0854c-1.1385,-2.0669 -1.9988,-6.1974 -1.5127,-5.9249c0.7287,1.0416 3.1651,4.4065 3.3972,6.0866c1.6074,0.0462 3.1779,-0.1709 4.3407,-0.7968c0.3452,-0.1859 0.694,-0.4838 1.0138,-0.8348c-1.8106,-0.7633 -4.7563,-5.5451 -4.7829,-6.3949c0,0 4.4642,3.4168 5.5993,5.2667c0.2206,-0.3903 0.3938,-0.7864 0.4769,-1.1444c0.6166,-2.6697 -1.3695,-5.2909 -3.2575,-6.9664c-5.3383,-4.7437 -12.7632,-7.9192 -19.0877,-11.142c-0.9122,-0.4631 -6.366,-3.2575 -6.7794,-3.6444c-0.3303,-0.3118 0.0693,-0.9434 0.3522,-1.1027c0.0566,-0.0324 0.2771,-0.1132 0.6016,-0.2241c1.6882,0.3211 3.3718,1.3869 4.5323,1.9689c5.5416,2.8406 21.3556,10.2782 24.9422,15.6951c1.5012,2.2655 1.9781,5.8417 0.4007,8.172z" fill="#272525"/></g><g><path d="M199.5235,152.5911c-3.2541,0.3383 -6.6224,1.0242 -10.4226,1.903c-4.6236,1.0739 -18.082,5.821 -22.4584,5.9457c-4.2101,0.1235 -9.082,-1.7356 -9.082,-5.9457c0,-4.1698 6.1525,-6.3568 10.321,-6.8533c8.6351,-1.0439 12.6339,-2.0058 21.0196,-2.0578c0.1732,0.0601 0.3614,0.0936 0.5762,0.0589c3.6501,-0.5877 6.761,0.761 8.7898,3.7945c0.4099,0.6154 0.9353,1.8394 1.2564,3.1547z" fill="#ffffff"/><path d="M197.602,154.6823c-15.642,1.8314 -30.2413,9.4723 -36.5138,6.2425c-1.9665,-1.0116 -3.9029,-3.9146 -3.8602,-6.164c0.1628,-8.4353 19.1443,-9.9041 28.799,-9.6939c0.3649,-0.0093 1.1189,-0.0174 2.4722,-0.0208c5.3037,-0.0162 1.4966,1.0023 0.5901,1.2275c-0.0554,0.0161 -0.1189,0.0288 -0.179,0.0438l-0.0034,0.0012c-4.5381,1.0912 -21.2274,1 -26.9642,4.6316c-2.2205,1.4065 -2.717,3.3938 -2.09,5.112c0.8464,-1.5035 7.3037,-2.9792 6.9653,-2.373c-1.1235,0.7829 -4.9365,3.5462 -6.4411,3.4042c0.7275,1.0623 1.925,1.9064 3.4007,2.291c1.2113,-1.6836 5.9815,-3.8591 6.8002,-3.7864c0,0 -2.5589,2.6062 -4.5854,4.0924c5.6385,0.2609 12.5831,-2.8153 17.605,-4.4296c4.0866,-1.3129 8.7159,-2.4619 13.4538,-3.1108c0.0162,-0.0023 0.0312,-0.0116 0.0462,-0.0139c0.9803,-0.1397 4.2979,-1.1062 4.6824,0.1444c0.3857,1.2505 -4.1767,2.4006 -4.1778,2.4018zM188.0997,145.1419c0.0058,0 0.0116,0 0.0173,0v0c0,0 -0.0057,0 -0.0173,0z" fill="#272525"/></g></g></g></svg>